<?xml version="1.0"?>
<svg xmlns="http://www.w3.org/2000/svg" xmlnsXlink="http://www.w3.org/1999/xlink" xmlnsSvgjs="http://svgjs.com/svgjs" version="1.1" width="512" height="512" x="0" y="0" viewBox="0 0 512 512" style="enable-background:new 0 0 512 512" xml:space="preserve" class=""><g><g xmlns="http://www.w3.org/2000/svg"><path d="m361.496 512c-20.649 0-38.647-14.053-43.654-34.085l-61.842-247.369-61.841 247.369c-5.008 20.032-23.007 34.085-43.655 34.085s-38.647-14.053-43.654-34.085l-105.496-421.991c-6.027-24.11 8.631-48.542 32.741-54.569 24.105-6.029 48.541 8.631 54.568 32.742l61.841 247.369 61.841-247.369c5.008-20.033 23.007-34.086 43.655-34.086 20.649 0 38.647 14.053 43.654 34.085l61.841 247.369 61.841-247.369c6.027-24.11 30.459-38.772 54.568-32.741 24.109 6.027 38.769 30.459 32.741 54.569l-105.495 421.991c-5.008 20.032-23.006 34.085-43.654 34.085z" fill="#48bb78" data-original="#000000" style="" class=""/></g></g></svg>
