<?xml version="1.0"?>
<svg xmlns="http://www.w3.org/2000/svg" xmlnsXlink="http://www.w3.org/1999/xlink" xmlnsSvgjs="http://svgjs.com/svgjs" version="1.1" width="512" height="512" x="0" y="0" viewBox="0 0 512 512" style="enable-background:new 0 0 512 512" xml:space="preserve"><g><g xmlns="http://www.w3.org/2000/svg"><path d="m458.967 53.033-53.033-53.033-74.246 74.247 53.032 137.885z" fill="#2d3e53" data-original="#2d3e53" style=""/><path d="m458.967 53.033-116.673 116.673 95.46 10.607 74.246-74.247z" fill="#16202d" data-original="#16202d" style=""/><path d="m32.186 428.315-32.186 83.685 100.362-57.936z" fill="#2d3e53" data-original="#2d3e53" style=""/><path d="m0 512 83.685-32.187-4.536-46.962z" fill="#16202d" data-original="#16202d" style=""/><path d="m185.215 369.211-118.923-29.568-34.106 88.672 25.749 25.749z" fill="#fff0be" data-original="#fff0be" style=""/><path d="m164.002 347.998-106.067 106.066 25.75 25.749 88.673-34.104z" fill="#ffd19c" data-original="#ffd19c" style=""/><path d="m384.72 127.279-53.032-53.032-42.427 42.426 31.82 159.099z" fill="#dff5ff" data-original="#dff5ff" style=""/><path d="m278.654 233.345 116.673-10.606 42.427-42.426-53.034-53.034z" fill="#bfebff" data-original="#bfebff" style=""/><path d="m119.324 392.676 53.034 53.033 222.969-222.97-53.033-53.033-153.911 69.058z" fill="#0556b2" data-original="#0556b2" style=""/><path d="m46.629 217.175h315.327v75h-315.327z" fill="#077ccc" transform="matrix(.707 -.707 .707 .707 -120.246 219.049)" data-original="#077ccc" style=""/></g></g></svg>
